<?xml version="1.0" encoding="UTF-8" standalone="no"?>
<!DOCTYPE svg PUBLIC "-//W3C//DTD SVG 1.1//EN" "http://www.w3.org/Graphics/SVG/1.1/DTD/svg11.dtd">
<svg width="100%" height="100%" viewBox="0 0 596 105" version="1.1" xmlns="http://www.w3.org/2000/svg" xmlns:xlink="http://www.w3.org/1999/xlink" xml:space="preserve" xmlns:serif="http://www.serif.com/" style="fill-rule:evenodd;clip-rule:evenodd;stroke-linejoin:round;stroke-miterlimit:2;">
    <g transform="matrix(1,0,0,1,-1175,-1522)">
        <g id="Artboard2" transform="matrix(0.528838,0,0,1,1175,1522)">
            <rect x="0" y="0" width="1127" height="104.63" style="fill:none;"/>
            <g transform="matrix(1.89094,0,0,1,2.86572e-13,-370)">
                <g id="Layer_1" transform="matrix(1,0,0,1,1.42109e-14,370)">
                    <path d="M140.76,52.2L134.32,52.2L134.32,76.2L125.32,76.2L125.32,52.2L120.67,52.2L120.67,44.49L125.32,44.49L125.32,41.49C125.32,33.72 130.17,29.73 137.55,29.73C138.691,29.741 139.828,29.875 140.94,30.13L140.94,39.13C139.966,38.745 138.928,38.545 137.88,38.54C137.797,38.534 137.714,38.53 137.63,38.53C135.831,38.53 134.35,40.011 134.35,41.81C134.35,41.894 134.354,41.977 134.36,42.06L134.36,44.45L140.8,44.45L140.76,52.2ZM154.32,76.2L145.22,76.2L145.22,30.4L154.32,30.4L154.32,76.2Z" style="fill-rule:nonzero;"/>
                    <path d="M174.52,42.5L174.55,42.5C184.008,42.5 191.79,50.282 191.79,59.74C191.79,69.198 184.008,76.98 174.55,76.98C165.092,76.98 157.31,69.198 157.31,59.74L157.31,59.71C157.309,59.64 157.309,59.569 157.309,59.499C157.309,50.173 164.983,42.499 174.309,42.499C174.379,42.499 174.45,42.499 174.52,42.5ZM174.52,68.14C179.17,68.14 182.52,64.29 182.52,59.71C182.52,55.13 179.2,51.33 174.52,51.33C170.018,51.485 166.4,55.231 166.4,59.735C166.4,64.239 170.018,67.985 174.52,68.14Z" style="fill-rule:nonzero;"/>
                    <path d="M201.23,43.16L207.07,65.16L212.92,47.69L211.33,43.17L220.33,43.17L228.04,65.17L233.76,43.17L243.12,43.17L233.29,76.26L223.86,76.26L217.28,58.12L211.17,76.26L201.67,76.26L191.9,43.17L201.23,43.16Z" style="fill-rule:nonzero;"/>
                    <circle cx="53.08" cy="52.32" r="50" style="fill:rgb(0,239,139);"/>
                    <rect x="60.91" y="44.49" width="14.12" height="14.12" style="fill:white;"/>
                    <path d="M46.79,58.61L46.79,63.91C46.79,66.817 44.398,69.21 41.49,69.21C38.583,69.21 36.19,66.817 36.19,63.91C36.19,61.002 38.583,58.61 41.49,58.61L46.79,58.61L46.79,44.49L41.49,44.49C30.837,44.49 22.07,53.257 22.07,63.91C22.07,74.563 30.837,83.33 41.49,83.33C52.143,83.33 60.91,74.563 60.91,63.91L60.91,58.61L46.79,58.61Z" style="fill:white;fill-rule:nonzero;"/>
                    <path d="M66.2,37.43L82.08,37.43L82.08,23.32L66.2,23.32C55.556,23.331 46.801,32.086 46.79,42.73L46.79,44.49L60.91,44.49L60.91,42.73C60.915,39.828 63.298,37.441 66.2,37.43Z" style="fill:white;fill-rule:nonzero;"/>
                    <rect x="46.79" y="44.49" width="14.12" height="14.12" style="fill:rgb(22,255,153);"/>
                </g>
                <g transform="matrix(0.994097,0,0,0.994097,-95.8729,-689.181)">
                    <path d="M376.553,1122.41L358.484,1122.41L358.484,1141.26L354.7,1141.26L354.7,1096.9L377.857,1096.9L377.857,1100.43L358.484,1100.43L358.484,1118.89L376.553,1118.89L376.553,1122.41Z" style="fill-rule:nonzero;"/>
                    <path d="M419.018,1133.89L419.018,1138.39C415.365,1140.74 411.234,1141.91 406.624,1141.91C400.145,1141.91 394.72,1139.73 390.349,1135.36C385.979,1130.99 383.794,1125.56 383.794,1119.08C383.794,1112.6 385.979,1107.18 390.349,1102.81C394.72,1098.44 400.145,1096.25 406.624,1096.25C411.234,1096.25 415.365,1097.43 419.018,1099.78L419.018,1104.34C415.626,1101.43 411.495,1099.97 406.624,1099.97C401.276,1099.97 396.796,1101.81 393.187,1105.48C389.577,1109.16 387.773,1113.69 387.773,1119.08C387.773,1124.48 389.577,1129.01 393.187,1132.68C396.796,1136.36 401.276,1138.2 406.624,1138.2C411.452,1138.2 415.583,1136.76 419.018,1133.89Z" style="fill-rule:nonzero;"/>
                    <path d="M451.569,1141.26L428.412,1141.26L428.412,1096.9L432.195,1096.9L432.195,1137.74L451.569,1137.74L451.569,1141.26Z" style="fill-rule:nonzero;"/>
                    <path d="M499.84,1141.26L494.556,1127.37L475.574,1127.37L470.421,1141.26L466.181,1141.26L483.01,1096.9L487.25,1096.9L504.08,1141.26L499.84,1141.26ZM485.098,1101.86L476.813,1123.78L493.317,1123.78L485.098,1101.86Z" style="fill-rule:nonzero;"/>
                    <path d="M513.865,1109.89L513.865,1115.37C515.735,1111.28 519.061,1109.23 523.845,1109.23C527.498,1109.23 530.433,1110.42 532.651,1112.79C534.869,1115.16 535.978,1118.24 535.978,1122.02L535.978,1141.26L532.325,1141.26L532.325,1122.67C532.325,1119.76 531.499,1117.4 529.846,1115.59C528.194,1113.79 525.932,1112.89 523.062,1112.89C520.279,1112.89 518.072,1113.75 516.441,1115.46C514.81,1117.18 513.952,1119.45 513.865,1122.28L513.865,1141.26L510.146,1141.26L510.146,1109.89L513.865,1109.89Z" style="fill-rule:nonzero;"/>
                    <path d="M572.247,1141.26L572.247,1133.89C571.029,1136.37 569.289,1138.33 567.028,1139.76C564.767,1141.2 562.179,1141.91 559.266,1141.91C554.699,1141.91 550.894,1140.35 547.85,1137.22C544.806,1134.09 543.284,1130.19 543.284,1125.54C543.284,1120.93 544.806,1117.06 547.85,1113.93C550.894,1110.8 554.699,1109.23 559.266,1109.23C562.179,1109.23 564.767,1109.96 567.028,1111.42C569.289,1112.88 571.029,1114.84 572.247,1117.32L572.247,1096.25L575.965,1096.25L575.965,1141.26L572.247,1141.26ZM572.247,1125.54C572.247,1122.02 571.04,1119.03 568.626,1116.57C566.213,1114.12 563.245,1112.89 559.722,1112.89C556.2,1112.89 553.232,1114.12 550.818,1116.57C548.405,1119.03 547.198,1122.02 547.198,1125.54C547.198,1129.11 548.405,1132.12 550.818,1134.58C553.232,1137.03 556.2,1138.26 559.722,1138.26C563.245,1138.26 566.213,1137.03 568.626,1134.58C571.04,1132.12 572.247,1129.11 572.247,1125.54Z" style="fill-rule:nonzero;"/>
                    <path d="M589.468,1109.89L589.468,1114.58C591.077,1111.02 593.882,1109.23 597.882,1109.23C598.752,1109.23 599.687,1109.34 600.687,1109.56L600.687,1113.54C599.6,1113.1 598.47,1112.89 597.295,1112.89C594.73,1112.89 592.805,1113.72 591.522,1115.4C590.239,1117.07 589.555,1119.37 589.468,1122.28L589.468,1141.26L585.749,1141.26L585.749,1109.89L589.468,1109.89Z" style="fill-rule:nonzero;"/>
                    <path d="M607.732,1137.22C604.601,1134.04 603.036,1130.15 603.036,1125.54C603.036,1120.93 604.601,1117.06 607.732,1113.93C610.863,1110.8 614.734,1109.23 619.343,1109.23C623.953,1109.23 627.824,1110.8 630.955,1113.93C634.086,1117.06 635.651,1120.93 635.651,1125.54C635.651,1130.19 634.086,1134.09 630.955,1137.22C627.824,1140.35 623.953,1141.91 619.343,1141.91C614.734,1141.91 610.863,1140.35 607.732,1137.22ZM606.884,1125.54C606.884,1129.11 608.08,1132.12 610.472,1134.58C612.864,1137.03 615.821,1138.26 619.343,1138.26C622.866,1138.26 625.834,1137.03 628.248,1134.58C630.661,1132.12 631.868,1129.11 631.868,1125.54C631.868,1122.02 630.661,1119.03 628.248,1116.57C625.834,1114.12 622.866,1112.89 619.343,1112.89C615.821,1112.89 612.864,1114.12 610.472,1116.57C608.08,1119.03 606.884,1122.02 606.884,1125.54Z" style="fill-rule:nonzero;"/>
                    <path d="M647.002,1109.89L647.002,1141.26L643.283,1141.26L643.283,1109.89L647.002,1109.89ZM642.37,1099.58C642.37,1098.84 642.642,1098.2 643.186,1097.65C643.729,1097.11 644.371,1096.84 645.11,1096.84C645.936,1096.84 646.61,1097.11 647.132,1097.65C647.654,1098.2 647.915,1098.84 647.915,1099.58C647.915,1100.36 647.654,1101.01 647.132,1101.54C646.61,1102.06 645.936,1102.32 645.11,1102.32C644.371,1102.32 643.729,1102.06 643.186,1101.54C642.642,1101.01 642.37,1100.36 642.37,1099.58Z" style="fill-rule:nonzero;"/>
                    <path d="M683.596,1141.26L683.596,1133.89C682.379,1136.37 680.639,1138.33 678.378,1139.76C676.116,1141.2 673.529,1141.91 670.615,1141.91C666.049,1141.91 662.244,1140.35 659.2,1137.22C656.156,1134.09 654.634,1130.19 654.634,1125.54C654.634,1120.93 656.156,1117.06 659.2,1113.93C662.244,1110.8 666.049,1109.23 670.615,1109.23C673.529,1109.23 676.116,1109.96 678.378,1111.42C680.639,1112.88 682.379,1114.84 683.596,1117.32L683.596,1096.25L687.314,1096.25L687.314,1141.26L683.596,1141.26ZM683.596,1125.54C683.596,1122.02 682.389,1119.03 679.976,1116.57C677.562,1114.12 674.594,1112.89 671.072,1112.89C667.549,1112.89 664.581,1114.12 662.168,1116.57C659.754,1119.03 658.547,1122.02 658.547,1125.54C658.547,1129.11 659.754,1132.12 662.168,1134.58C664.581,1137.03 667.549,1138.26 671.072,1138.26C674.594,1138.26 677.562,1137.03 679.976,1134.58C682.389,1132.12 683.596,1129.11 683.596,1125.54Z" style="fill-rule:nonzero;"/>
                </g>
            </g>
        </g>
    </g>
</svg>
